<svg width="136" height="48" viewBox="0 0 136 48" fill="none" xmlns="http://www.w3.org/2000/svg">
<g clip-path="url(#clip0_2125_2053)">
<path fill-rule="evenodd" clip-rule="evenodd" d="M17.63 5C7.99994 5 0.200012 12.7999 0.200012 22.43C0.200012 30.1428 5.18935 36.6572 12.1178 38.9667C12.9893 39.1192 13.3161 38.5963 13.3161 38.1388C13.3161 37.7248 13.2943 36.3522 13.2943 34.8924C8.91501 35.6986 7.78206 33.8249 7.43346 32.8444C7.23737 32.3433 6.38766 30.7964 5.64689 30.3824C5.03684 30.0556 4.16534 29.2495 5.6251 29.2277C6.99771 29.2059 7.97815 30.4914 8.30496 31.0143C9.87366 33.6506 12.3792 32.9098 13.3814 32.4522C13.534 31.3193 13.9915 30.5567 14.4926 30.121C10.6144 29.6852 6.56196 28.1819 6.56196 21.5149C6.56196 19.6194 7.23737 18.0507 8.34854 16.8306C8.17424 16.3949 7.56419 14.6083 8.52284 12.2117C8.52284 12.2117 9.9826 11.7541 13.3161 13.9982C14.7105 13.6061 16.192 13.41 17.6736 13.41C19.1551 13.41 20.6367 13.6061 22.0311 13.9982C25.3646 11.7323 26.8243 12.2117 26.8243 12.2117C27.783 14.6083 27.1729 16.3949 26.9986 16.8306C28.1098 18.0507 28.7852 19.5976 28.7852 21.5149C28.7852 28.2037 24.7109 29.6852 20.8328 30.121C21.4646 30.6657 22.0093 31.7115 22.0093 33.3455C22.0093 35.6768 21.9875 37.5505 21.9875 38.1388C21.9875 38.5963 22.3143 39.141 23.1858 38.9667C26.646 37.7986 29.6527 35.5748 31.7828 32.6083C33.9129 29.6418 35.0591 26.082 35.06 22.43C35.06 12.7999 27.2601 5 17.63 5Z" fill="black" fill-opacity="0.7"/>
<path d="M81.4557 30.843H81.4151C81.4334 30.843 81.4456 30.8633 81.4639 30.8654H81.4761L81.4557 30.845V30.843ZM81.4639 30.8654C81.2748 30.8674 80.7989 30.9671 80.2967 30.9671C78.7105 30.9671 78.1615 30.235 78.1615 29.2793V22.9124H81.3947C81.5778 22.9124 81.7201 22.7497 81.7201 22.526V19.0691C81.7201 18.886 81.5574 18.7234 81.3947 18.7234H78.1615V14.4327C78.1615 14.27 78.0598 14.1683 77.8768 14.1683H73.4844C73.3014 14.1683 73.1997 14.27 73.1997 14.4327V18.8454C73.1997 18.8454 70.9832 19.3944 70.8409 19.4147C70.6782 19.4554 70.5765 19.5978 70.5765 19.7604V22.526C70.5765 22.7497 70.7392 22.9124 70.9222 22.9124H73.1794V29.5822C73.1794 34.544 76.6364 35.0524 78.9952 35.0524C80.073 35.0524 81.3744 34.7067 81.5778 34.605C81.6998 34.5643 81.7608 34.422 81.7608 34.2796V31.2294C81.7636 31.1429 81.7351 31.0582 81.6806 30.991C81.626 30.9238 81.5491 30.8785 81.4639 30.8633V30.8654ZM129.65 26.3897C129.65 22.709 128.165 22.221 126.599 22.3837C125.379 22.465 124.403 23.075 124.403 23.075V30.233C124.403 30.233 125.4 30.9244 126.884 30.965C128.979 31.026 129.65 30.2736 129.65 26.3897ZM134.591 26.0643C134.591 33.0392 132.334 35.032 128.389 35.032C125.054 35.032 123.265 33.3442 123.265 33.3442C123.265 33.3442 123.183 34.2796 123.081 34.4016C123.02 34.5236 122.919 34.5643 122.797 34.5643H119.787C119.584 34.5643 119.401 34.4016 119.401 34.2186L119.442 11.6264C119.442 11.4434 119.604 11.2808 119.787 11.2808H124.119C124.302 11.2808 124.464 11.4434 124.464 11.6264V19.2927C124.464 19.2927 126.132 18.215 128.572 18.215L128.552 18.1743C130.992 18.1743 134.591 19.0894 134.591 26.0643ZM116.859 18.7234H112.589C112.365 18.7234 112.243 18.886 112.243 19.1097V30.172C112.243 30.172 111.125 30.965 109.599 30.965C108.074 30.965 107.627 30.2736 107.627 28.7485V19.0894C107.627 18.9064 107.464 18.7437 107.281 18.7437H102.93C102.746 18.7437 102.584 18.9064 102.584 19.0894V29.4806C102.584 33.9543 105.085 35.0727 108.522 35.0727C111.348 35.0727 113.646 33.5069 113.646 33.5069C113.646 33.5069 113.748 34.3 113.809 34.422C113.849 34.5236 113.992 34.605 114.134 34.605H116.859C117.083 34.605 117.205 34.4423 117.205 34.2593L117.245 19.0691C117.245 18.886 117.083 18.7234 116.859 18.7234ZM68.665 18.703H64.3337C64.1507 18.703 63.988 18.886 63.988 19.1097V34.0356C63.988 34.4423 64.2523 34.5847 64.598 34.5847H68.5024C68.9091 34.5847 69.0107 34.4016 69.0107 34.0356V19.0487C69.0107 18.8657 68.8481 18.703 68.665 18.703ZM66.5299 11.8298C64.9641 11.8298 63.7236 13.0702 63.7236 14.636C63.7236 16.2018 64.9641 17.4423 66.5299 17.4423C68.055 17.4423 69.2954 16.2018 69.2954 14.636C69.2954 13.0702 68.055 11.8298 66.5299 11.8298ZM100.062 11.3214H95.7716C95.5886 11.3214 95.4259 11.4841 95.4259 11.6671V19.9841H88.695V11.6671C88.695 11.4841 88.5323 11.3214 88.3493 11.3214H84.018C83.835 11.3214 83.6723 11.4841 83.6723 11.6671V34.2593C83.6723 34.4423 83.8553 34.605 84.018 34.605H88.3493C88.5323 34.605 88.695 34.4423 88.695 34.2593V24.6002H95.4259L95.3852 34.2593C95.3852 34.4423 95.5479 34.605 95.7309 34.605H100.062C100.245 34.605 100.408 34.4423 100.408 34.2593V11.6671C100.408 11.4841 100.245 11.3214 100.062 11.3214ZM61.6901 21.3262V32.9985C61.6901 33.0799 61.6698 33.2222 61.5681 33.2629C61.5681 33.2629 59.0263 35.0727 54.8372 35.0727C49.7738 35.0727 43.775 33.4866 43.775 23.0344C43.775 12.5822 49.0214 10.4267 54.1459 10.447C58.5789 10.447 60.3684 11.4434 60.653 11.6264C60.7344 11.7281 60.7751 11.8095 60.7751 11.9111L59.921 15.5308C59.921 15.7138 59.738 15.9375 59.5143 15.8765C58.7822 15.6528 57.6841 15.2054 55.1016 15.2054C52.1124 15.2054 48.8994 16.0595 48.8994 22.7904C48.8994 29.5212 51.9497 30.3143 54.1459 30.3143C56.0167 30.3143 56.6877 30.0906 56.6877 30.0906V25.4136H53.6985C53.4748 25.4136 53.3121 25.2509 53.3121 25.0679V21.3262C53.3121 21.1432 53.4748 20.9805 53.6985 20.9805H61.3038C61.5275 20.9805 61.6901 21.1432 61.6901 21.3262Z" fill="black" fill-opacity="0.7"/>
</g>
<defs>
<clipPath id="clip0_2125_2053">
<rect width="135" height="48" fill="white" transform="translate(0.200012)"/>
</clipPath>
</defs>
</svg>
