<svg width="149" height="48" viewBox="0 0 149 48" fill="none" xmlns="http://www.w3.org/2000/svg">
<path d="M1.03934 26.2057L16.5943 41.7607C8.65091 40.418 2.38205 34.1491 1.03934 26.2057Z" fill="black" fill-opacity="0.7"/>
<path d="M0.800049 21.9828L20.8173 42C22.0077 41.9364 23.1691 41.7633 24.2915 41.4906L1.30948 18.5086C1.03676 19.631 0.863657 20.7923 0.800049 21.9828Z" fill="black" fill-opacity="0.7"/>
<path d="M2.30591 15.5212L27.279 40.4943C28.1885 40.1039 29.0615 39.6446 29.8913 39.123L3.67717 12.9088C3.15555 13.7386 2.69628 14.6116 2.30591 15.5212Z" fill="black" fill-opacity="0.7"/>
<path d="M5.36896 10.6172C8.85587 6.56555 14.0215 4 19.7863 4C30.2873 4 38.8 12.5127 38.8 23.0137C38.8 28.7786 36.2345 33.9442 32.1829 37.4311L5.36896 10.6172Z" fill="black" fill-opacity="0.7"/>
<path d="M58.6101 34.3999H72.5418V30.6061H63.2115V12.6363H58.6101V34.3999ZM75.5039 34.3999H80.0311V18.0772H75.5039V34.3999ZM77.7781 16.1431C79.0959 16.1431 80.2329 15.1442 80.2329 13.8477C80.2329 12.5619 79.0959 11.563 77.7781 11.563C76.471 11.563 75.334 12.5619 75.334 13.8477C75.334 15.1442 76.471 16.1431 77.7781 16.1431ZM88.1845 24.9633C88.195 22.8593 89.449 21.6265 91.2767 21.6265C93.094 21.6265 94.1886 22.8167 94.178 24.8146V34.3999H98.705V24.0069C98.705 20.2026 96.4734 17.8647 93.0728 17.8647C90.6498 17.8647 88.8964 19.0549 88.1632 20.9571H87.9719V18.0772H83.6573V34.3999H88.1845V24.9633ZM109.754 34.7188C113.803 34.7188 116.513 32.7527 117.15 29.7241L112.974 29.4478C112.517 30.6912 111.337 31.3394 109.839 31.3394C107.576 31.3394 106.141 29.841 106.141 27.4075V27.3969H117.257V26.1535C117.257 20.6064 113.899 17.8647 109.584 17.8647C104.781 17.8647 101.667 21.2759 101.667 26.313C101.667 31.4882 104.738 34.7188 109.754 34.7188ZM106.141 24.5914C106.226 22.7317 107.65 21.244 109.659 21.244C111.614 21.244 112.974 22.6467 112.995 24.5914H106.141ZM124.929 34.7082C127.341 34.7082 128.904 33.6561 129.701 32.1364H129.828V34.3999H134.121V23.3906C134.121 19.5012 130.795 17.8647 127.267 17.8647C123.25 17.8647 120.71 19.735 120.083 22.7105L124.27 23.0505C124.578 21.9666 125.546 21.1696 127.171 21.1696C128.734 21.1696 129.584 21.9347 129.594 23.3056C129.605 24.3789 128.479 24.5383 125.641 24.8146C122.411 25.1121 119.509 26.1961 119.509 29.841C119.509 33.0716 121.816 34.7082 124.929 34.7082ZM126.226 31.5838C124.833 31.5838 123.835 30.9356 123.835 29.6922C123.835 28.4171 124.887 27.79 126.481 27.5669C127.469 27.4288 129.084 27.195 129.626 26.8337V28.5659C129.626 30.2768 128.213 31.5838 126.226 31.5838ZM137.633 34.3999H142.161V25.1653C142.171 23.1674 143.616 21.7966 145.444 21.7966C146.06 21.7966 146.56 21.9666 146.985 22.1791L148.345 18.4385C147.75 18.0772 146.985 17.8434 146.114 17.8434C144.275 17.8434 142.787 18.9061 142.192 20.9252H142.022V18.0772H137.633V34.3999Z" fill="black" fill-opacity="0.7"/>
</svg>
