<svg width="122" height="48" viewBox="0 0 122 48" fill="none" xmlns="http://www.w3.org/2000/svg">
<g clip-path="url(#clip0_2125_2055)">
<path d="M38.3251 32.4263L39.7932 28.9949C41.4007 30.1853 43.4973 30.8154 45.5945 30.8154C47.1323 30.8154 48.1107 30.2204 48.1107 29.3101C48.0756 26.7889 38.8494 28.7498 38.7792 22.4112C38.7441 19.1897 41.6102 16.7036 45.6647 16.7036C48.0756 16.7036 50.4875 17.2991 52.1998 18.6649L50.8279 22.1696C49.2525 21.1566 47.3067 20.4503 45.4546 20.4503C44.1965 20.4503 43.3575 21.0453 43.3575 21.8162C43.3926 24.3023 52.6895 22.9364 52.7942 28.9949C52.7942 32.2865 49.9978 34.5977 46.0135 34.5977C43.0783 34.5977 40.3877 33.8975 38.3251 32.4263ZM96.7831 27.7523C96.4125 28.4108 95.8735 28.9588 95.2212 29.3402C94.569 29.7216 93.827 29.9226 93.0715 29.9227C90.7167 29.9227 88.808 28.0099 88.808 25.6506C88.808 23.2913 90.7167 21.3786 93.0715 21.3786C93.827 21.3787 94.569 21.5797 95.2212 21.9611C95.8735 22.3425 96.4125 22.8905 96.7831 23.549L100.865 21.2834C99.3359 18.5511 96.4197 16.7036 93.0715 16.7036C88.1398 16.7036 84.142 20.709 84.142 25.6506C84.142 30.5918 88.1398 34.5977 93.0715 34.5977C96.4197 34.5977 99.3359 32.7501 100.865 30.0179L96.7831 27.7523ZM55.4427 34.2473H60.5453V9.25574H55.4433L55.4427 34.2473ZM103.442 9.25574V34.2473H108.544V26.7599L114.59 34.2473H121.113L113.424 25.3524L120.553 17.0524H114.311L108.544 23.953V9.25574H103.442ZM76.2656 17.0535V19.085C75.427 17.684 73.3649 16.7036 71.1981 16.7036C66.7245 16.7036 63.1948 20.6608 63.1948 25.6331C63.1948 30.6053 66.7245 34.5977 71.1981 34.5977C73.3649 34.5977 75.427 33.6173 76.2656 32.2163V34.2473H81.3681V17.0535H76.2656ZM76.2656 27.7869C75.5317 29.0124 73.994 29.9222 72.2817 29.9222C69.9264 29.9222 68.0177 28.0099 68.0177 25.6506C68.0177 23.2913 69.9264 21.3786 72.2817 21.3786C73.994 21.3786 75.5317 22.3239 76.2656 23.584V27.7869Z" fill="black" fill-opacity="0.7"/>
<path d="M11.3783 8.70361C9.72474 8.70361 8.38444 10.0469 8.38444 11.7035C8.38405 12.0971 8.46117 12.4868 8.61141 12.8506C8.76166 13.2143 8.98207 13.5449 9.26008 13.8235C9.53809 14.1021 9.86824 14.3231 10.2317 14.4741C10.5951 14.6251 10.9848 14.703 11.3783 14.7034H14.3727V11.7035C14.3734 10.9086 14.0583 10.1461 13.4967 9.58348C12.9352 9.0209 12.1732 8.70441 11.3783 8.70361ZM11.3783 16.7033H3.39415C1.74057 16.7033 0.400269 18.0466 0.400269 19.7037C0.400269 21.3603 1.74057 22.7036 3.39415 22.7036H11.3788C13.0319 22.7036 14.3727 21.3603 14.3727 19.7037C14.3727 18.0466 13.0319 16.7033 11.3783 16.7033Z" fill="black" fill-opacity="0.7"/>
<path d="M30.3411 19.7037C30.3411 18.0466 29.0003 16.7033 27.3468 16.7033C25.6932 16.7033 24.3529 18.0466 24.3529 19.7037V22.7036H27.3468C28.1416 22.7028 28.9036 22.3863 29.4652 21.8237C30.0267 21.2612 30.3418 20.4986 30.3411 19.7037ZM22.357 19.7037V11.7035C22.3576 10.9086 22.0425 10.1461 21.481 9.58348C20.9195 9.0209 20.1575 8.70441 19.3626 8.70361C17.709 8.70361 16.3687 10.0469 16.3687 11.7035V19.7032C16.3687 21.3608 17.709 22.7041 19.3626 22.7041C20.1575 22.7033 20.9195 22.3868 21.481 21.8242C22.0425 21.2617 22.3576 20.4986 22.357 19.7037Z" fill="black" fill-opacity="0.7"/>
<path d="M19.3627 38.7036C20.1575 38.7028 20.9195 38.3863 21.4811 37.8237C22.0426 37.2612 22.3577 36.4986 22.357 35.7037C22.3577 34.9088 22.0426 34.1463 21.4811 33.5837C20.9195 33.0211 20.1575 32.7046 19.3627 32.7038H16.3688V35.7037C16.3688 37.3603 17.7091 38.7036 19.3627 38.7036ZM19.3627 30.7039H27.3473C29.0004 30.7039 30.3412 29.3606 30.3412 27.7035C30.3419 26.9086 30.0268 26.1461 29.4652 25.5835C28.9037 25.0209 28.1417 24.7044 27.3468 24.7036H19.3627C17.7091 24.7036 16.3688 26.0469 16.3688 27.7035C16.3684 28.0971 16.4455 28.4868 16.5957 28.8506C16.746 29.2143 16.9664 29.5449 17.2444 29.8235C17.5224 30.1021 17.8526 30.3231 18.216 30.4741C18.5795 30.6251 18.9691 30.7035 19.3627 30.7039Z" fill="black" fill-opacity="0.7"/>
<path d="M0.400026 27.7035C0.399631 28.0971 0.476756 28.4868 0.626999 28.8506C0.777241 29.2143 0.997659 29.5449 1.27567 29.8235C1.55367 30.1021 1.88383 30.3231 2.24727 30.4741C2.61072 30.6251 3.00035 30.703 3.3939 30.7034C4.18877 30.7026 4.95078 30.3861 5.51232 29.8235C6.07386 29.261 6.38895 28.4984 6.38828 27.7035V24.7036H3.3939C1.74033 24.7036 0.400026 26.0469 0.400026 27.7035ZM8.3842 27.7035V35.7032C8.3842 37.3603 9.7245 38.7036 11.3781 38.7036C12.1729 38.7028 12.9349 38.3863 13.4965 37.8237C14.058 37.2612 14.3731 36.4986 14.3725 35.7037V27.7035C14.3728 27.3099 14.2957 26.9201 14.1454 26.5563C13.9952 26.1925 13.7747 25.8619 13.4966 25.5833C13.2186 25.3048 12.8884 25.0837 12.5249 24.9327C12.1614 24.7818 11.7717 24.7039 11.3781 24.7036C9.7245 24.7036 8.3842 26.0469 8.3842 27.7035Z" fill="black" fill-opacity="0.7"/>
</g>
<defs>
<clipPath id="clip0_2125_2055">
<rect width="121" height="48" fill="white" transform="translate(0.400024)"/>
</clipPath>
</defs>
</svg>
