<svg width="154" height="48" viewBox="0 0 154 48" fill="none" xmlns="http://www.w3.org/2000/svg">
<g clip-path="url(#clip0_2125_2061)">
<path d="M131.631 22.9363V34.9883H135.483V26.9537H149.572V34.9883H153.424V22.9363H131.631ZM135.043 19.0291H149.902C151.993 18.6438 153.479 16.7727 153.919 15.0117H131.026C131.466 16.7727 133.007 18.5888 135.043 19.0291ZM119.909 34.9883C121.836 34.1629 122.881 32.732 123.321 31.0811H105.986V15.0668H102.079V34.9883H119.909ZM73.1872 18.974H86.9452C89.0365 18.3687 90.7425 16.7727 91.1827 15.0668H69.39V26.8436H87.2204V30.971H73.2423C71.041 31.5764 69.1699 33.0622 68.2344 34.9883H91.0726V22.9363H73.2423L73.1872 18.974ZM39.2875 19.0291H54.1462C56.2374 18.6438 57.7783 16.7727 58.1635 15.0117H35.2152C35.6554 16.7727 37.1963 18.5888 39.2875 19.0291ZM39.2875 26.8986H54.1462C56.2374 26.5134 57.7783 24.6423 58.1635 22.8813H35.2152C35.6554 24.6423 37.1963 26.4584 39.2875 26.8986ZM39.2875 34.9883H54.1462C56.2374 34.6031 57.7783 32.732 58.1635 30.971H35.2152C35.6554 32.732 37.1963 34.6031 39.2875 34.9883Z" fill="black" fill-opacity="0.7"/>
<path d="M0.600037 15.0668C1.04029 16.8278 2.58119 18.5888 4.61737 19.0291H10.891L11.2212 19.1391V34.9333H15.1285V19.1391L15.4587 19.0291H21.7323C23.8235 18.4787 25.3094 16.8278 25.7497 15.0668V15.0117L0.600037 15.0668Z" fill="black" fill-opacity="0.7"/>
</g>
<defs>
<clipPath id="clip0_2125_2061">
<rect width="153" height="48" fill="white" transform="translate(0.600037)"/>
</clipPath>
</defs>
</svg>
