<svg width="125" height="24" viewBox="0 0 125 24" fill="none" xmlns="http://www.w3.org/2000/svg">
<g clip-path="url(#clip0_2386_232)">
<path d="M28.0755 1.79785H45.5267C46.7956 1.79785 47.5011 2.1295 47.7816 2.52344L47.8314 2.60254C47.914 2.75059 47.9975 2.9569 48.0648 3.19824L48.1263 3.45117C48.1668 3.64575 48.2024 3.90996 48.221 4.16113L48.2337 4.40429C48.2362 4.50606 48.2434 4.5971 48.2533 4.68164C48.259 4.73061 48.2653 4.77794 48.2699 4.80762V5.69433C48.2686 5.91992 48.2816 6.11762 48.2904 6.25097C48.2997 6.39245 48.306 6.48448 48.306 6.58984C48.306 7.22627 48.3146 7.83704 48.3236 8.43457L48.3421 10.2383L48.306 16.1436V16.1543C48.306 16.262 48.3004 16.3483 48.2913 16.4844C48.2868 16.552 48.2811 16.6336 48.2767 16.7275L48.2699 17.0449V17.0469C48.2728 17.8662 48.2609 18.3584 48.1595 19.0039L48.1107 19.292C48.0006 19.8898 47.7567 20.2517 47.4671 20.4541C47.2098 20.6331 46.4781 20.876 45.5247 20.876H28.0726C27.0111 20.8755 26.4407 20.6543 26.1331 20.415C25.8985 20.2325 25.6418 19.9046 25.5052 19.2061L25.4544 18.8828C25.3843 18.3129 25.3674 17.651 25.3656 16.9492L25.3675 16.2363V16.2353C25.3688 16.0018 25.3549 15.7976 25.346 15.6514C25.3367 15.4975 25.3314 15.3912 25.3314 15.2695C25.3314 14.6102 25.3251 13.9268 25.3187 13.2617C25.3123 12.5931 25.306 11.9436 25.306 11.3369C25.306 10.7302 25.3123 10.0806 25.3187 9.41211C25.3251 8.74713 25.3314 8.06354 25.3314 7.40429C25.3314 7.10812 25.3388 6.81809 25.348 6.49414C25.3569 6.17684 25.3675 5.82865 25.3675 5.45605C25.3675 4.64826 25.3934 3.94766 25.5286 3.35449C25.6431 2.85267 25.809 2.54836 26.0052 2.35351L26.0911 2.27734L26.0921 2.27637C26.3879 2.03646 27.1906 1.79788 28.0755 1.79785Z" stroke="#0C0C0C" stroke-width="3.59475"/>
<path fill-rule="evenodd" clip-rule="evenodd" d="M114.722 0.318524V22.354C114.722 22.436 114.747 22.4604 114.829 22.4604H117.762V14.4544H118.978C119.103 14.4544 119.11 14.6272 119.171 14.8645C119.218 15.0504 119.256 15.2022 119.3 15.375L121.159 22.4604H124.378C124.362 22.2623 122.433 15.6534 122.245 15.0085C122.19 14.8227 122.144 14.6542 122.093 14.4849C122.047 14.3252 121.96 14.0879 121.946 13.9221C122.318 13.8365 122.836 13.3583 123.075 13.0572C124.255 11.5745 124.056 8.79494 124.056 6.69528C124.056 6.44744 124.055 6.19871 124.057 5.95087C124.058 5.6751 124.02 5.5346 124.021 5.24312C124.028 3.1984 123.594 1.09522 121.316 0.48259C120.517 0.267907 119.586 0.212055 118.586 0.212055H114.831C114.748 0.212055 114.724 0.236491 114.724 0.318524H114.722ZM118.727 11.797H117.762V2.90518C119.779 2.90518 120.987 2.70795 120.98 5.06596C120.98 5.34435 121.017 5.49795 121.017 5.73793V8.92847C121.017 9.17282 120.98 9.34828 120.98 9.6354C120.985 11.2542 120.482 11.7962 118.727 11.7962V11.797Z" fill="#0C0C0C"/>
<path fill-rule="evenodd" clip-rule="evenodd" d="M102.456 22.4604H105.567C105.604 22.0206 105.685 21.5214 105.709 21.0781L105.838 19.6827C105.872 19.4418 105.868 19.2367 105.894 18.995L106.103 16.8988H109.357L109.613 19.6923C109.658 20.1173 109.731 20.6374 109.751 21.079C109.77 21.5188 109.858 22.0284 109.893 22.4604H112.54C113.044 22.4622 113.024 22.5512 112.958 22.0817C112.741 20.5265 112.591 18.9758 112.376 17.4154C112.301 16.8726 112.241 16.3604 112.182 15.8359C112.064 14.7947 111.922 13.737 111.795 12.7116C111.665 11.6565 111.558 10.6407 111.412 9.58565C111.198 8.0567 111.044 6.46488 110.834 4.91412C110.761 4.37566 110.693 3.87037 110.642 3.33367L110.352 0.998351C110.326 0.78716 110.256 0.425865 110.252 0.212055H105.281C105.133 0.212055 105.178 0.340341 105.162 0.484335L104.519 5.69256C104.275 7.52174 104.07 9.44513 103.826 11.276C103.701 12.2176 103.609 13.113 103.482 14.0529C103.36 14.9605 103.24 15.9353 103.135 16.8621L102.456 22.4596V22.4604ZM108.105 2.90518C108.105 3.06924 108.129 3.42443 108.156 3.59897L108.484 7.88041C108.516 8.09157 108.529 8.40049 108.534 8.60998C108.538 8.78187 108.562 8.7723 108.57 8.92847C108.632 10.1852 108.861 11.6033 108.929 12.8242L109.071 14.2423H106.388L106.858 9.35876C106.975 8.26354 107.049 6.88989 107.137 5.77284L107.281 3.61293C107.285 3.45672 107.322 3.03957 107.354 2.90518H108.105Z" fill="#0C0C0C"/>
<path fill-rule="evenodd" clip-rule="evenodd" d="M0.00176183 22.4604H3.11316C3.15015 22.0197 3.21535 21.5171 3.25323 21.0755C3.32458 20.2299 3.46376 19.0639 3.50781 18.2811C3.53248 17.8378 3.61264 17.3386 3.64964 16.8988H6.90374C6.90374 17.1283 6.94074 17.391 6.9654 17.5821L7.4402 22.4613H10.0865C10.5895 22.4631 10.5684 22.5573 10.5049 22.0817L9.34123 12.7125C9.21084 11.66 9.10512 10.6416 8.95713 9.58565C8.80913 8.53053 8.71669 7.51909 8.56778 6.46402C8.41978 5.40807 8.31406 4.38963 8.18374 3.33717L7.79698 0.212934H2.82598C2.66477 0.212934 2.71058 0.493069 2.66301 0.830803L2.40314 2.91217C2.28774 3.84856 2.19084 4.7518 2.0587 5.68907C1.68167 8.3752 1.39009 11.3302 1.02627 14.0547C0.722352 16.3342 0.478337 18.7716 0.16297 21.0292L0 22.4613L0.00176183 22.4604ZM4.97277 2.90519H5.65196C5.65196 3.36946 5.75327 3.86864 5.75943 4.32244C5.76207 4.49697 5.77969 4.83471 5.80436 5.02146L6.61744 14.2423H3.93505L4.21078 11.4331C4.27156 10.9558 4.27597 10.5159 4.3438 10.0412L4.47153 8.60907C4.53584 7.27473 4.68648 5.64631 4.7913 4.28491L4.86442 3.18794C4.86265 3.03783 4.82566 2.90519 4.97277 2.90519Z" fill="#0C0C0C"/>
<path fill-rule="evenodd" clip-rule="evenodd" d="M87.6511 22.4604H90.5838C90.6655 22.4604 90.6914 22.436 90.6914 22.354V0.318524C90.6914 0.236491 90.6662 0.212055 90.5838 0.212055H87.6511V22.4604Z" fill="#0C0C0C"/>
<path fill-rule="evenodd" clip-rule="evenodd" d="M93.2656 22.4604H101.312V19.7682H96.3045V0.212934H93.2656V22.4604Z" fill="#0C0C0C"/>
<path fill-rule="evenodd" clip-rule="evenodd" d="M63.7986 9.17548L63.869 18.5647C63.8946 19.4217 64.1562 20.462 64.6496 21.1925C64.9094 21.5764 65.1376 21.7649 65.5287 22.0215C66.1348 22.4186 67.1593 22.6324 68.2287 22.6725H68.9714C70.0655 22.6315 71.1158 22.4107 71.723 22.0206C71.8893 21.9141 71.9745 21.8635 72.1227 21.7431C72.4001 21.5179 72.5706 21.3024 72.7683 21.0004C73.1247 20.455 73.3238 19.7254 73.4252 18.9235C73.5712 17.768 73.4901 15.4806 73.4901 14.2763H70.4505V18.2445C70.4505 19.5361 69.9642 20.1932 68.6622 20.1932C66.6968 20.1932 66.8651 18.7402 66.8747 17.075C66.8765 16.8264 66.8378 16.7382 66.8369 16.5095L66.8386 14.6656C66.747 12.9822 66.8025 10.4906 66.8025 8.74959L66.8378 6.23363C66.836 5.94215 66.8739 5.7423 66.8739 5.4194C66.8739 5.14015 66.8642 4.84518 66.873 4.56766L66.9294 3.77351C67.132 2.67654 67.9495 2.3868 69.011 2.52295C69.233 2.55174 69.4823 2.63116 69.6567 2.73327C70.2961 3.10765 70.3429 3.80667 70.3429 4.60431L70.3066 8.25306H73.3469C73.3469 7.91353 73.3832 7.71194 73.3832 7.36725C73.3832 5.8767 73.4957 4.02659 73.1009 2.68614C72.9584 2.20005 72.7984 1.87628 72.5321 1.47834C72.34 1.19035 72.1918 1.08213 71.9613 0.875305C71.6971 0.637934 71.1074 0.404925 70.7727 0.281875C69.736 -0.101236 67.5108 -0.0977447 66.3894 0.332492C65.8494 0.53932 65.3102 0.833415 64.9491 1.27936C64.9042 1.33434 64.8769 1.35616 64.8319 1.41114C64.1721 2.21052 63.8841 3.32408 63.8735 4.394C63.8717 4.59035 63.8373 4.61915 63.8347 4.81638L63.8004 9.17548H63.7986Z" fill="#0C0C0C"/>
<path fill-rule="evenodd" clip-rule="evenodd" d="M52.1406 5.17244C52.1406 7.13163 51.9661 9.43291 53.0409 11.0116C53.5007 11.6871 54.4618 12.1627 55.2361 12.3791C55.7805 12.5318 56.2967 12.6584 56.8535 12.7963C57.4049 12.9324 57.9255 13.0424 58.2303 13.4517C58.8355 14.2624 58.7915 15.9912 58.7915 17.076C58.7915 18.172 58.8311 19.5814 57.922 20.0056C57.3943 20.2517 56.3319 20.2316 55.829 19.9043C55.5418 19.7176 55.407 19.5011 55.2907 19.1626C55.0987 18.604 55.1101 16.8779 55.1083 16.1553L55.1436 14.8794C55.1427 14.6289 55.1806 14.512 55.1806 14.2423H52.3916C52.2269 14.2423 52.293 14.4282 52.2815 14.594L52.211 15.5165C52.1758 16.6972 52.1873 18.6416 52.4357 19.6888C53.0435 22.2545 54.8071 22.6734 57.2904 22.6734C58.558 22.6734 60.1772 22.2955 60.8599 21.2858C61.2404 20.7229 61.4465 20.2857 61.591 19.5658C61.8518 18.2628 61.7962 16.8229 61.7962 15.4475C61.7962 14.1577 61.5672 12.9752 61.1294 12.1051C59.8838 9.63101 56.2439 10.4025 55.5735 9.10743C55.2229 8.43104 55.192 7.75122 55.1823 6.97891C55.1797 6.7782 55.1445 6.73369 55.1436 6.52075C55.1427 5.59133 55.0899 3.97685 55.3947 3.29528C55.7955 2.39903 57.0895 2.35453 57.7511 2.59102L58.1916 2.82752C58.4153 2.99159 58.5695 3.25426 58.654 3.53876C58.8637 4.24739 58.7201 7.26775 58.7201 8.25565H61.6527C61.6527 7.77658 61.6888 7.42658 61.6888 6.94488C61.6888 5.07295 61.8694 2.57968 60.6608 1.23224C59.6424 0.0968711 58.1211 0.000875473 56.6464 0.000875473C55.8959 0.000875473 55.1224 0.137888 54.5499 0.332498C53.9411 0.539326 53.4602 0.860477 53.1007 1.30555C52.9166 1.53332 52.8779 1.6459 52.7607 1.8536C52.2524 2.75073 52.1414 4.09118 52.1414 5.17244H52.1406Z" fill="#0C0C0C"/>
<path fill-rule="evenodd" clip-rule="evenodd" d="M11.8739 4.99528C11.8739 6.896 11.6845 9.31426 12.6535 10.8484C13.9599 12.9176 17.1497 12.3721 17.9954 13.4918C18.2429 13.8191 18.3935 14.5129 18.449 15.0269L18.4895 15.9781C18.4878 16.4494 18.5671 17.0585 18.4993 17.5463C18.471 17.7505 18.5071 17.9634 18.4843 18.1694C18.3503 19.3545 18.2473 20.1434 16.733 20.1793C15.4363 20.2098 14.891 19.5178 14.8769 18.282C14.8654 17.3028 14.795 16.2085 14.876 15.2319C14.8901 15.0626 14.8769 14.841 14.8769 14.6664C14.8769 14.4526 14.9721 14.2423 14.8065 14.2423H12.0175C12.0175 14.6542 11.947 15.1098 11.9444 15.3393C11.9259 16.8229 11.8475 18.9793 12.3337 20.2709C12.7222 21.3033 13.3072 21.9953 14.3818 22.3513C14.9253 22.5311 15.6019 22.6411 16.3022 22.6742H17.1893C17.9319 22.6394 18.649 22.5137 19.2102 22.2903C21.7207 21.2901 21.5287 18.3413 21.5287 15.6954C21.5287 14.0372 21.2618 12.1199 20.0875 11.1356C18.3636 9.69033 15.8089 10.3483 15.2187 8.9442C14.7809 7.90138 14.8769 6.35668 14.8769 5.13753C14.8769 4.96561 14.8637 4.78409 14.8866 4.61566C14.9069 4.46643 14.8981 4.26135 14.9218 4.08332C14.9668 3.74036 15.0267 3.49513 15.1624 3.22372C15.2848 2.97936 15.4486 2.78737 15.7102 2.66782C16.407 2.34841 17.6483 2.39903 18.153 3.06052C18.5962 3.64087 18.4887 5.20298 18.4887 6.09313C18.4887 6.85498 18.4526 7.49379 18.4526 8.2539H21.3851C21.3851 6.04338 21.7604 2.92177 20.4311 1.29944C20.0796 0.870073 19.6224 0.541066 19.0393 0.340348C18.4949 0.152719 17.8245 0.0357785 17.1215 -1.90735e-06H16.2053C15.2143 0.0506142 14.2382 0.267914 13.5291 0.684188C13.2455 0.849998 13.0754 1.0289 12.8825 1.24795C12.1557 2.06915 11.873 3.46109 11.873 4.99528H11.8739Z" fill="#0C0C0C"/>
<path fill-rule="evenodd" clip-rule="evenodd" d="M75.7066 0.31853V22.354C75.7066 22.436 75.7317 22.4604 75.8142 22.4604H78.7469V12.5415H82.001V22.4604H85.0412V0.212934H82.001V9.84915H78.7469V0.212934H75.8142C75.7317 0.212934 75.7066 0.23737 75.7066 0.319403V0.31853Z" fill="#0C0C0C"/>
</g>
<defs>
<clipPath id="clip0_2386_232">
<rect width="124.378" height="23.0589" fill="white"/>
</clipPath>
</defs>
</svg>
